<?xml version="1.0" encoding="UTF-8"?>
<svg version="1.1" xmlns="http://www.w3.org/2000/svg" width="500" height="500">
<path d="M0 0 C0.4140625 3.16015625 0.4140625 3.16015625 0.625 7.0625 C0.73714844 8.99802734 0.73714844 8.99802734 0.8515625 10.97265625 C0.90054688 11.97167969 0.94953125 12.97070312 1 14 C1.99902344 13.98839844 2.99804688 13.97679687 4.02734375 13.96484375 C5.31769531 13.95582031 6.60804688 13.94679687 7.9375 13.9375 C9.22527344 13.92589844 10.51304687 13.91429687 11.83984375 13.90234375 C15 14 15 14 16 15 C16.63802808 21.29439244 16.43231126 27.53539919 13 33 C9.24814249 37.03324682 5.56633236 40.79181952 -0.1840601 41.12749195 C-1.03847911 41.12874923 -1.89289812 41.1300065 -2.77320862 41.13130188 C-4.24702248 41.13731415 -4.24702248 41.13731415 -5.75061035 41.14344788 C-6.82750122 41.14291916 -7.90439209 41.14239044 -9.01391602 41.1418457 C-10.14921249 41.14532013 -11.28450897 41.14879456 -12.45420837 41.15237427 C-14.92435273 41.15973525 -17.39450372 41.1650788 -19.86465645 41.16866493 C-23.77847283 41.1758262 -27.69216354 41.19149174 -31.60594177 41.21000671 C-32.94758314 41.21634426 -34.28922457 41.22266989 -35.63086605 41.22898388 C-36.30283233 41.23214969 -36.9747986 41.2353155 -37.66712749 41.23857725 C-46.77652248 41.28058329 -55.885876 41.31359445 -64.99536133 41.32592773 C-71.80057901 41.33523586 -78.60547274 41.36540419 -85.41056633 41.40724754 C-88.00077879 41.41953843 -90.59103566 41.42468231 -93.18127632 41.42244911 C-96.81463055 41.4200881 -100.44708933 41.44232676 -104.08032227 41.4699707 C-105.14304352 41.46336929 -106.20576477 41.45676788 -107.3006897 41.44996643 C-116.56978511 41.56526724 -123.95003674 43.83128215 -131 50 C-131.66 50 -132.32 50 -133 50 C-133.2475 50.66 -133.495 51.32 -133.75 52 C-135.016477 55.0395448 -136.50263346 57.86512752 -138.09765625 60.7421875 C-140.30924127 66.27593703 -140.15217219 72.35830532 -140.16113281 78.23925781 C-140.16609772 79.03215714 -140.17106262 79.82505646 -140.17617798 80.64198303 C-140.19069322 83.2457061 -140.19758378 85.84936825 -140.203125 88.453125 C-140.20595238 89.34867851 -140.20877975 90.24423203 -140.21169281 91.16692352 C-140.22664242 95.90636994 -140.23589854 100.64578626 -140.24023438 105.38525391 C-140.24571233 110.25484918 -140.26973829 115.12416393 -140.29820633 119.99367142 C-140.31692424 123.76172669 -140.32204316 127.5297156 -140.32357025 131.29781342 C-140.32657674 133.09177941 -140.33453663 134.8857448 -140.34775543 136.67966461 C-140.53397392 155.87616267 -140.53397392 155.87616267 -131 172 C-123.77512832 178.37871553 -116.73015751 179.29803129 -107.34814453 179.2746582 C-106.28722595 179.27976913 -105.22630737 179.28488007 -104.13323975 179.29014587 C-100.63303963 179.30402339 -97.13303683 179.30308638 -93.6328125 179.30078125 C-91.19432502 179.3046693 -88.75583822 179.3090042 -86.31735229 179.31376648 C-81.20812789 179.32122483 -76.09897259 179.32094025 -70.98974609 179.31567383 C-64.45066569 179.3098811 -57.91186871 179.32680763 -51.37283516 179.3500185 C-46.33700921 179.36476898 -41.30125129 179.36562571 -36.26540756 179.36250877 C-33.8549328 179.36302136 -31.44445417 179.3682474 -29.0340004 179.37832069 C-25.65936254 179.39069227 -22.28527396 179.38388846 -18.91064453 179.37231445 C-17.92025177 179.37995819 -16.92985901 179.38760193 -15.90945435 179.39547729 C-7.481756 179.3317683 -0.60964881 177.27924601 6.10546875 172.0078125 C13.9212045 163.7247441 15.12390916 153.67508132 15.31640625 142.88671875 C15.3475779 141.43239189 15.3475779 141.43239189 15.37937927 139.94868469 C15.44458941 136.86169293 15.5036268 133.77461848 15.5625 130.6875 C15.60571237 128.59048636 15.64932752 126.49348097 15.69335938 124.39648438 C15.80024151 119.26440693 15.90158896 114.13224659 16 109 C15.38479492 109.01047363 14.76958984 109.02094727 14.13574219 109.03173828 C11.34053657 109.07338695 8.54539634 109.09935416 5.75 109.125 C4.29787109 109.15013672 4.29787109 109.15013672 2.81640625 109.17578125 C1.41455078 109.18544922 1.41455078 109.18544922 -0.015625 109.1953125 C-0.87446289 109.20578613 -1.73330078 109.21625977 -2.61816406 109.22705078 C-5.17903596 108.98293323 -6.79511029 108.28990512 -9 107 C-9.37955789 104.12495808 -9.52838762 101.89644238 -8.02001953 99.33740234 C-6.59857783 97.55132767 -5.11030919 95.86527967 -3.5625 94.1875 C-3.01553467 93.57221436 -2.46856934 92.95692871 -1.9050293 92.32299805 C1.86156644 88.12486482 5.80972143 84.13614441 9.85546875 80.20703125 C13.06450011 76.90447621 15.86321057 73.29570896 18.73828125 69.703125 C21.60637055 66.2752877 24.7230786 63.18255356 27.93359375 60.078125 C30.35141792 57.64658916 32.45984673 55.0535377 34.515625 52.3125 C36.760175 50.32784526 37.98337875 49.9351729 41 50 C43.39828788 51.9155945 45.31534987 53.70405371 47.375 55.9375 C47.9529834 56.54070068 48.5309668 57.14390137 49.12646484 57.76538086 C52.57990981 61.39349288 55.95131728 65.0932166 59.1953125 68.91015625 C61.57109582 71.6613339 64.03591694 74.32823702 66.5 77 C70.13597986 80.94898284 73.73472434 84.921978 77.23046875 88.99609375 C78.59420887 90.5404617 80.00139094 92.04654222 81.42578125 93.53515625 C82.25464844 94.41042969 83.08351563 95.28570312 83.9375 96.1875 C85.09572266 97.38439453 85.09572266 97.38439453 86.27734375 98.60546875 C88 101 88 101 88.56640625 103.61328125 C88 106 88 106 86.14453125 107.80078125 C81.62764079 109.52337177 77.47441601 109.3194362 72.6875 109.1875 C71.29047852 109.16719727 71.29047852 109.16719727 69.86523438 109.14648438 C67.57622354 109.11126882 65.28841542 109.06202099 63 109 C63.01047363 110.05687012 63.02094727 111.11374023 63.03173828 112.20263672 C63.06861921 116.21724909 63.09114133 120.23184742 63.10986328 124.24658203 C63.11976899 125.96665993 63.13329725 127.68672172 63.15087891 129.40673828 C63.24223724 138.5909374 63.11630807 147.66598072 62.125 156.8046875 C62.00960373 157.8845845 62.00960373 157.8845845 61.89187622 158.98629761 C59.6002529 177.91856331 48.90199042 194.92473912 34.53125 207.08984375 C17.70311868 219.57435027 -0.82198506 222.32969099 -21.19140625 222.36328125 C-21.96838238 222.36503546 -22.74535851 222.36678967 -23.54587936 222.36859703 C-30.88025202 222.37758193 -38.2140997 222.33657551 -45.5480957 222.2644043 C-49.59568128 222.22653338 -53.64218369 222.22288726 -57.68989372 222.23943138 C-59.21482728 222.23867345 -60.73981877 222.22482782 -62.26449776 222.19695473 C-70.68340158 222.04428135 -76.90602199 222.26282785 -83.31323242 228.30593872 C-83.86986572 228.86497894 -84.42649902 229.42401917 -85 230 C-86.79501329 231.21377089 -88.60550428 232.40530331 -90.4375 233.5625 C-95.76309119 237.05424721 -100.75223535 240.86846171 -105.75 244.8125 C-111.68771301 249.47236585 -117.65771023 254.06673845 -123.8125 258.4375 C-124.46379883 258.91614502 -125.11509766 259.39479004 -125.78613281 259.88793945 C-128.58279834 261.83774292 -130.35784856 263.02042805 -133.82421875 262.91015625 C-136 262 -136 262 -138 260 C-138.2682179 252.11398728 -135.96508769 243.8271753 -134.5 236.125 C-134.27441406 234.91585937 -134.04882812 233.70671875 -133.81640625 232.4609375 C-132.01271729 222.85549334 -132.01271729 222.85549334 -131 219 C-131.87269531 218.72285156 -132.74539062 218.44570313 -133.64453125 218.16015625 C-152.33960091 211.69631959 -165.69915572 198.70644035 -174.31738281 181.13916016 C-177.34603077 174.63483704 -179.38171351 167.99428905 -181 161 C-181.17593689 160.27945938 -181.35187378 159.55891876 -181.53314209 158.81654358 C-182.1345491 155.18826825 -182.15563426 151.61359019 -182.16113281 147.94702148 C-182.16858017 146.75053482 -182.16858017 146.75053482 -182.17617798 145.52987671 C-182.19076284 142.8936068 -182.19760102 140.25739738 -182.203125 137.62109375 C-182.20595238 136.71287432 -182.20877975 135.80465488 -182.21169281 134.86891365 C-182.22668265 130.04777869 -182.23590913 125.22667354 -182.24023438 120.40551758 C-182.2456706 115.48070075 -182.269595 110.55616723 -182.29820633 105.63143826 C-182.31706998 101.80039246 -182.32205106 97.96941109 -182.32357025 94.13832283 C-182.32655215 92.32667583 -182.33442449 90.51502868 -182.34775543 88.70342827 C-182.41317245 79.11696633 -182.05946819 69.76412702 -180.68261719 60.26586914 C-180.56827961 59.46276275 -180.45394203 58.65965635 -180.33613968 57.8322134 C-177.22633558 38.45136067 -165.15556105 22.1397996 -149.5 10.75 C-136.41428152 2.38260803 -121.83071177 -0.11547979 -106.58862305 -0.22119141 C-105.45939926 -0.2326973 -104.33017548 -0.24420319 -103.16673279 -0.25605774 C-99.44842197 -0.29262968 -95.73009407 -0.32234153 -92.01171875 -0.3515625 C-89.42576362 -0.37468529 -86.83981087 -0.39807569 -84.25386047 -0.42172241 C-78.84300776 -0.47010118 -73.43214206 -0.51513438 -68.02124023 -0.55761719 C-61.76300541 -0.60681799 -55.50486364 -0.66312992 -49.24672288 -0.72303832 C-43.22128301 -0.78049467 -37.19580993 -0.83226305 -31.17029762 -0.88163376 C-28.6069284 -0.90324716 -26.0435717 -0.92640156 -23.48023033 -0.9510994 C-19.90830768 -0.98482616 -16.33639378 -1.01208998 -12.7644043 -1.03759766 C-11.16465759 -1.05466011 -11.16465759 -1.05466011 -9.53259277 -1.07206726 C-8.07958015 -1.08045876 -8.07958015 -1.08045876 -6.59721375 -1.08901978 C-5.33048089 -1.09951575 -5.33048089 -1.09951575 -4.03815746 -1.11022377 C-2 -1 -2 -1 0 0 Z " fill="#41B4F6" transform="translate(303,129)"/>
<path d="M0 0 C0.81824753 -0.0049649 1.63649506 -0.00992981 2.47953796 -0.01504517 C5.18916666 -0.02966105 7.89873678 -0.0364685 10.60839844 -0.04199219 C12.49306235 -0.04774494 14.37772625 -0.05350266 16.26239014 -0.05926514 C20.21675896 -0.06977406 24.17110746 -0.07561717 28.12548828 -0.07910156 C33.18391665 -0.08458033 38.24207504 -0.10859564 43.30041885 -0.13707352 C47.19527969 -0.1557318 51.09007598 -0.16090724 54.98497772 -0.16243744 C56.84923526 -0.16545824 58.71349181 -0.17346739 60.57770538 -0.18662262 C63.19133292 -0.20374683 65.80430731 -0.20178721 68.41796875 -0.1953125 C69.18290146 -0.20452728 69.94783417 -0.21374207 70.73594666 -0.22323608 C75.85352231 -0.18367891 79.40868587 0.79885135 83.96777344 3.16113281 C86.4719007 6.10076047 86.26764626 9.42477623 86.15527344 13.19628906 C85.89987067 15.87269727 85.33304792 17.8401662 83.96777344 20.16113281 C80.183348 22.90081254 75.80286749 22.46390178 71.33129883 22.4675293 C70.02573784 22.48001457 70.02573784 22.48001457 68.69380188 22.49275208 C65.81763229 22.51684097 62.94168944 22.52562212 60.06542969 22.53222656 C58.06530184 22.54119256 56.06517468 22.5503144 54.06504822 22.55958557 C49.87285736 22.57607427 45.68074636 22.58377568 41.48852539 22.58666992 C36.11696623 22.59205866 30.74615732 22.62975969 25.37481022 22.67541409 C21.24410762 22.70515384 17.11358654 22.71239278 12.98278618 22.71339607 C11.00242101 22.71760322 9.02205554 22.73005726 7.04179573 22.75091362 C4.27184909 22.77776876 1.5036529 22.77302074 -1.26635742 22.76049805 C-2.49231628 22.78274948 -2.49231628 22.78274948 -3.74304199 22.80545044 C-7.98995744 22.75077324 -9.57579338 22.5179081 -13.04078674 19.8094635 C-15.41834659 16.64764829 -15.67894772 15.01739396 -15.59472656 11.09863281 C-15.59601563 10.07640625 -15.59730469 9.05417969 -15.59863281 8.00097656 C-14.90303506 4.51339332 -13.79808599 3.33466663 -11.03222656 1.16113281 C-7.31841471 -0.07680447 -3.86844444 0.00559406 0 0 Z " fill="#42B4F6" transform="translate(191.0322265625,192.8388671875)"/>
<path d="M0 0 C1.07706459 0.0175383 1.07706459 0.0175383 2.17588806 0.03543091 C2.94057907 0.0282756 3.70527008 0.0211203 4.49313354 0.01374817 C7.01755251 -0.00314276 9.54019645 0.01626417 12.06455994 0.03762817 C13.8204615 0.0367995 15.57636298 0.03434019 17.33226013 0.03031921 C21.01100535 0.02746096 24.68914181 0.04216463 28.36778259 0.0696106 C33.0825573 0.10369379 37.79624344 0.09767564 42.51107025 0.07894802 C46.13653124 0.06837787 49.76173906 0.07731591 53.38717651 0.09233284 C55.12550098 0.09751503 56.86385188 0.09703239 58.60217285 0.09078789 C61.03227049 0.08533533 63.46081156 0.10570989 65.89073181 0.13308716 C66.60877487 0.12656128 67.32681793 0.1200354 68.06661987 0.11331177 C71.48130502 0.17870558 73.23305292 0.42928623 75.94847107 2.57487488 C79.12427858 6.76628401 79.0465728 10.54275512 78.53330994 15.66653442 C76.45222886 20.20707496 76.45222886 20.20707496 73.53330994 21.66653442 C71.05279032 21.78535903 68.5994364 21.84482853 66.11778259 21.85940552 C64.97118416 21.87167175 64.97118416 21.87167175 63.80142212 21.88418579 C61.2667469 21.90903975 58.73212762 21.92555439 56.19737244 21.93997192 C54.90025393 21.94795744 54.90025393 21.94795744 53.576931 21.95610428 C49.00120174 21.98283395 44.42549977 22.00221072 39.84971619 22.01663208 C35.11921614 22.03329342 30.38941096 22.07808362 25.65917397 22.12900352 C22.02521444 22.16262459 18.39142105 22.17420372 14.7573204 22.17985916 C13.013352 22.1865843 11.269395 22.20183915 9.52557755 22.22574997 C7.08568031 22.25730038 4.64767322 22.25745461 2.20762634 22.25003052 C1.48644119 22.26643585 0.76525604 22.28284119 0.0222168 22.29974365 C-3.71749527 22.2531267 -5.18250117 21.94144237 -7.91313171 19.29998779 C-9.66877397 16.32397984 -10.00525649 14.59894599 -9.96669006 11.16653442 C-9.97700256 10.24872192 -9.98731506 9.33090942 -9.99794006 8.38528442 C-8.85592038 2.54083074 -5.92485841 0.11283691 0 0 Z " fill="#45B3F0" transform="translate(185.46669006347656,230.33346557617188)"/>
<path d="M0 0 C0.66569504 -0.0071553 1.33139008 -0.01431061 2.01725769 -0.02168274 C4.20687538 -0.03852341 6.39443185 -0.0191985 8.58398438 0.00219727 C10.11185881 0.00136812 11.63973316 -0.00109299 13.16760254 -0.00511169 C16.36542703 -0.00796648 19.56254987 0.00669894 22.76025391 0.03417969 C26.85279724 0.06826302 30.94408637 0.06224185 35.03668976 0.04351711 C38.19039302 0.03293249 41.34380601 0.04189799 44.4974823 0.05690193 C46.00611 0.06207354 47.51476814 0.06161433 49.02339172 0.05535698 C51.13474361 0.0498866 53.24431947 0.0703333 55.35546875 0.09765625 C56.55506226 0.10385483 57.75465576 0.11005341 58.99060059 0.11643982 C62.79890057 0.73141047 64.46887217 1.93191137 67.17773438 4.63110352 C68.68868089 9.09856556 68.751619 13.31936722 66.86523438 17.63110352 C63.66996864 21.41808513 61.91112354 22.01458991 56.93414307 22.4654541 C51.57744624 22.78737069 46.2224852 22.81523204 40.85742188 22.83422852 C39.59938751 22.83992859 38.34135315 22.84562866 37.04519653 22.85150146 C34.39777011 22.86090778 31.75045586 22.86782829 29.10302734 22.87133789 C25.72621914 22.87684256 22.34981002 22.90094517 18.97312737 22.92930984 C15.72625633 22.9524866 12.47936402 22.95438657 9.23242188 22.95922852 C8.02810516 22.97157532 6.82378845 22.98392212 5.58297729 22.99664307 C-0.59389701 22.98026185 -5.46686655 22.88147373 -10.82226562 19.63110352 C-11.81614335 16.64947034 -12.08596185 14.38117106 -12.19726562 11.25610352 C-12.24625 10.32024414 -12.29523438 9.38438477 -12.34570312 8.42016602 C-11.08362005 1.69533528 -6.21884997 0.0049859 0 0 Z " fill="#43B4F4" transform="translate(187.822265625,267.368896484375)"/>
<path d="M0 0 C0.4140625 3.16015625 0.4140625 3.16015625 0.625 7.0625 C0.73714844 8.99802734 0.73714844 8.99802734 0.8515625 10.97265625 C0.90054688 11.97167969 0.94953125 12.97070312 1 14 C1.99902344 13.98839844 2.99804688 13.97679687 4.02734375 13.96484375 C5.31769531 13.95582031 6.60804688 13.94679687 7.9375 13.9375 C9.22527344 13.92589844 10.51304687 13.91429687 11.83984375 13.90234375 C15 14 15 14 16 15 C16.63780468 21.29218845 16.43454602 27.53850879 13 33 C10.54701084 35.63357732 7.97985323 37.97547126 5 40 C4.34 40 3.68 40 3 40 C3 39.34 3 38.68 3 38 C3.969375 37.38125 4.93875 36.7625 5.9375 36.125 C9.06415376 34.35904569 9.06415376 34.35904569 9.875 31.9375 C9.98099645 30.29455501 10 28.64636068 10 27 C10.33 26.34 10.66 25.68 11 25 C11.99 25 12.98 25 14 25 C14 22.03 14 19.06 14 16 C9.38 16 4.76 16 0 16 C-2 11 -2 11 -3 2 C-41.61 2 -80.22 2 -120 2 C-120 2.66 -120 3.32 -120 4 C-121.45817797 4.16802051 -122.9165484 4.33437143 -124.375 4.5 C-125.59316406 4.63921875 -125.59316406 4.63921875 -126.8359375 4.78125 C-129 5 -129 5 -131 5 C-131 4.34 -131 3.68 -131 3 C-122.85301844 0.01939699 -115.16825938 -0.16168728 -106.58862305 -0.22119141 C-105.45939926 -0.2326973 -104.33017548 -0.24420319 -103.16673279 -0.25605774 C-99.44842197 -0.29262968 -95.73009407 -0.32234153 -92.01171875 -0.3515625 C-89.42576362 -0.37468529 -86.83981087 -0.39807569 -84.25386047 -0.42172241 C-78.84300776 -0.47010118 -73.43214206 -0.51513438 -68.02124023 -0.55761719 C-61.76300541 -0.60681799 -55.50486364 -0.66312992 -49.24672288 -0.72303832 C-43.22128301 -0.78049467 -37.19580993 -0.83226305 -31.17029762 -0.88163376 C-28.6069284 -0.90324716 -26.0435717 -0.92640156 -23.48023033 -0.9510994 C-19.90830768 -0.98482616 -16.33639378 -1.01208998 -12.7644043 -1.03759766 C-11.16465759 -1.05466011 -11.16465759 -1.05466011 -9.53259277 -1.07206726 C-8.07958015 -1.08045876 -8.07958015 -1.08045876 -6.59721375 -1.08901978 C-5.33048089 -1.09951575 -5.33048089 -1.09951575 -4.03815746 -1.11022377 C-2 -1 -2 -1 0 0 Z " fill="#6DAFD1" transform="translate(303,129)"/>
<path d="M0 0 C10.70091899 -0.06959751 21.40178387 -0.12286082 32.10288334 -0.15543652 C37.07216974 -0.17107346 42.04130095 -0.19227576 47.01049805 -0.22631836 C51.8085984 -0.25898206 56.60654975 -0.27686784 61.40475273 -0.28463173 C63.23273501 -0.29016265 65.06070939 -0.30096322 66.88862801 -0.31719017 C69.45465666 -0.33905774 72.02007437 -0.34196305 74.58618164 -0.34057617 C75.71259819 -0.35675491 75.71259819 -0.35675491 76.86177063 -0.3732605 C81.9450669 -0.34365096 85.47003587 0.65785327 90 3 C92.50412727 5.93962766 92.29987282 9.26364342 92.1875 13.03515625 C91.93209723 15.71156446 91.36527448 17.67903339 90 20 C86.21139609 22.74936254 81.82455481 22.28816914 77.34765625 22.2746582 C76.47567596 22.27976913 75.60369568 22.28488007 74.70529175 22.29014587 C71.82429127 22.30404081 68.94352999 22.30308538 66.0625 22.30078125 C64.05997631 22.30466782 62.05745344 22.30900241 60.05493164 22.31376648 C55.858534 22.32122817 51.66222051 22.32093746 47.46582031 22.31567383 C42.08538181 22.30987485 36.70528705 22.32682086 31.3249054 22.3500185 C27.18996158 22.36474072 23.05510088 22.36562968 18.9201355 22.36250877 C16.93618081 22.3630226 14.95222154 22.36827182 12.96829224 22.37832069 C10.19608108 22.39064042 7.42454391 22.38392065 4.65234375 22.37231445 C3.83144257 22.37995819 3.01054138 22.38760193 2.1647644 22.39547729 C-1.1779626 22.36450347 -3.58186479 22.23011348 -6.54077148 20.60173035 C-8 19 -8 19 -8 17 C-7.01 17 -6.02 17 -5 17 C-5 17.99 -5 18.98 -5 20 C6.66542144 20.06947079 18.33079378 20.12279647 29.99637985 20.15543652 C35.41302541 20.17110107 40.82952957 20.19235391 46.24609375 20.22631836 C51.47211347 20.25888341 56.69799707 20.27684706 61.92411041 20.28463173 C63.91924432 20.29018035 65.91437066 20.3010153 67.90944672 20.31719017 C70.70118892 20.3389264 73.49236666 20.34196851 76.28417969 20.34057617 C77.11136505 20.351362 77.93855042 20.36214783 78.790802 20.3732605 C82.11867348 20.35526808 84.55594197 20.2401024 87.51373291 18.64082336 C89.64330419 16.28979889 89.50051307 14.62544805 89.4375 11.5 C89.43621094 10.5409375 89.43492187 9.581875 89.43359375 8.59375 C89.17788247 6.05650499 89.17788247 6.05650499 87.9875946 4.36491394 C84.83804447 2.20206601 81.45638385 2.56094966 77.76489258 2.56762695 C76.50602486 2.55233948 76.50602486 2.55233948 75.22172546 2.53674316 C72.44592686 2.50653321 69.67047288 2.49733509 66.89453125 2.48828125 C64.97066595 2.47144048 63.0468117 2.45329106 61.12297058 2.43388367 C56.0579066 2.38631211 50.99288739 2.35654906 45.92767334 2.33044434 C40.75963497 2.30067488 35.59175098 2.25413218 30.42382812 2.20898438 C20.28263271 2.12286987 10.1414056 2.05556085 0 2 C0 1.34 0 0.68 0 0 Z " fill="#519FC7" transform="translate(185,193)"/>
<path d="M0 0 C1.37349524 2.74699048 2.37934801 5.02402031 3.3125 7.875 C5.83872555 14.64930633 10.74108599 19.52422482 17 23 C22.55129118 25.37643418 27.72245272 25.28292821 33.65185547 25.25878906 C34.71277405 25.2622937 35.77369263 25.26579834 36.86676025 25.26940918 C40.36696963 25.27819724 43.86697613 25.2723867 47.3671875 25.265625 C49.80567463 25.26697269 52.2441615 25.26891409 54.68264771 25.27142334 C59.79187581 25.27437081 64.90103394 25.27008973 70.01025391 25.26074219 C76.54928104 25.24936007 83.08814377 25.25590176 89.62716484 25.26788712 C94.66298656 25.27512615 99.69876953 25.27280817 104.73459244 25.26763153 C107.14506169 25.26630006 109.5555345 25.26792509 111.9659996 25.27259064 C115.34054582 25.27768802 118.71482878 25.26989977 122.08935547 25.25878906 C123.57494461 25.26486176 123.57494461 25.26486176 125.09054565 25.27105713 C130.73589522 25.23674485 135.58184437 24.60650529 141 23 C138.41201575 26.16309187 135.918745 26.98227837 132 28 C128.55122314 28.29355076 125.11503274 28.29378282 121.65527344 28.29052734 C120.62682816 28.29724457 119.59838287 28.30396179 118.53877258 28.31088257 C115.14559062 28.32984869 111.75260665 28.33378627 108.359375 28.3359375 C105.99293945 28.34236699 103.62650469 28.34909546 101.2600708 28.35610962 C96.30047768 28.36807937 91.3409542 28.37179081 86.38134766 28.37060547 C80.04192785 28.37040244 73.70295714 28.39768975 67.36364365 28.43214989 C62.47528046 28.45444453 57.58702484 28.45844219 52.69861603 28.45738602 C50.36235254 28.45973867 48.02608594 28.46854316 45.68987274 28.48405075 C42.41370183 28.50375942 39.1384928 28.49785261 35.86230469 28.48583984 C34.90715469 28.49707886 33.9520047 28.50831787 32.96791077 28.51989746 C24.67368421 28.44304653 18.30093741 25.70128665 11 22 C11 21.34 11 20.68 11 20 C9.68 20 8.36 20 7 20 C4.75 17 4.75 17 3 14 C1.35 14.33 -0.3 14.66 -2 15 C-2 14.01 -2 13.02 -2 12 C-1.34 11.67 -0.68 11.34 0 11 C0 7.37 0 3.74 0 0 Z " fill="#4FA2C9" transform="translate(162,283)"/>
<path d="M0 0 C1.75183594 0.00386719 1.75183594 0.00386719 3.5390625 0.0078125 C4.70179688 0.00523437 5.86453125 0.00265625 7.0625 0 C10.1640625 0.1328125 10.1640625 0.1328125 13.1640625 1.1328125 C13.1640625 6.0828125 13.1640625 11.0328125 13.1640625 16.1328125 C7.5540625 16.1328125 1.9440625 16.1328125 -3.8359375 16.1328125 C-3.8565625 13.6784375 -3.8771875 11.2240625 -3.8984375 8.6953125 C-3.9075415 7.92131104 -3.91664551 7.14730957 -3.92602539 6.34985352 C-3.93318663 4.61059533 -3.88618452 2.87135946 -3.8359375 1.1328125 C-2.8359375 0.1328125 -2.8359375 0.1328125 0 0 Z " fill="#A3A8A6" transform="translate(346.8359375,147.8671875)"/>
<path d="M0 0 C1.14218994 0.00960754 2.28437988 0.01921509 3.46118164 0.02911377 C7.22166326 0.06199066 10.98202457 0.10236602 14.74243164 0.14282227 C17.35559164 0.16713443 19.96875605 0.19097744 22.58192444 0.21437073 C28.74765721 0.27035578 34.91332379 0.33174085 41.0789848 0.39509207 C48.10194937 0.46698706 55.12496673 0.53282248 62.14799488 0.59816253 C76.58709386 0.73263443 91.02610954 0.87488669 105.46508789 1.02172852 C105.46508789 4.32172852 105.46508789 7.62172852 105.46508789 11.02172852 C105.13508789 11.02172852 104.80508789 11.02172852 104.46508789 11.02172852 C104.13508789 8.05172852 103.80508789 5.08172852 103.46508789 2.02172852 C64.85508789 2.02172852 26.24508789 2.02172852 -13.53491211 2.02172852 C-13.53491211 2.68172852 -13.53491211 3.34172852 -13.53491211 4.02172852 C-14.99309008 4.18974902 -16.45146051 4.35609994 -17.90991211 4.52172852 C-19.12807617 4.66094727 -19.12807617 4.66094727 -20.37084961 4.80297852 C-22.53491211 5.02172852 -22.53491211 5.02172852 -24.53491211 5.02172852 C-24.53491211 4.36172852 -24.53491211 3.70172852 -24.53491211 3.02172852 C-16.2841918 0.00317231 -8.68277299 -0.10516467 0 0 Z " fill="#4AAADE" transform="translate(196.534912109375,128.978271484375)"/>
<path d="M0 0 C-6 2 -6 2 -24 2 C-24 14.21 -24 26.42 -24 39 C-25.32 38.67 -26.64 38.34 -28 38 C-27.67 25.79 -27.34 13.58 -27 1 C-22.98571237 -1.00714382 -17.92261735 -0.44405055 -13.5 -0.625 C-12.42878906 -0.6765625 -11.35757812 -0.728125 -10.25390625 -0.78125 C-9.23167969 -0.82507813 -8.20945312 -0.86890625 -7.15625 -0.9140625 C-6.21587891 -0.9548291 -5.27550781 -0.9955957 -4.30664062 -1.03759766 C-2 -1 -2 -1 0 0 Z " fill="#53ABDE" transform="translate(390,236)"/>
<path d="M0 0 C4.29 0 8.58 0 13 0 C13 3.96 13 7.92 13 12 C8.71 12 4.42 12 0 12 C0 8.04 0 4.08 0 0 Z " fill="#9CA09E" transform="translate(364,130)"/>
<path d="M0 0 C0.66569504 -0.0071553 1.33139008 -0.01431061 2.01725769 -0.02168274 C4.20687538 -0.03852341 6.39443185 -0.0191985 8.58398438 0.00219727 C10.11185881 0.00136812 11.63973316 -0.00109299 13.16760254 -0.00511169 C16.36542703 -0.00796648 19.56254987 0.00669894 22.76025391 0.03417969 C26.85279724 0.06826302 30.94408637 0.06224185 35.03668976 0.04351711 C38.19039302 0.03293249 41.34380601 0.04189799 44.4974823 0.05690193 C46.00611 0.06207354 47.51476814 0.06161433 49.02339172 0.05535698 C51.13474361 0.0498866 53.24431947 0.0703333 55.35546875 0.09765625 C56.55506226 0.10385483 57.75465576 0.11005341 58.99060059 0.11643982 C62.79890057 0.73141047 64.46887217 1.93191137 67.17773438 4.63110352 C68.68868089 9.09856556 68.751619 13.31936722 66.86523438 17.63110352 C65.17773438 19.63110352 65.17773438 19.63110352 63.17773438 21.63110352 C61.05273438 21.25610352 61.05273438 21.25610352 59.17773438 20.63110352 C59.98210937 20.15672852 60.78648437 19.68235352 61.61523438 19.19360352 C64.02526925 17.86210198 64.02526925 17.86210198 65.17773438 16.63110352 C65.46052198 12.48355193 65.39986406 9.20583388 63.17773438 5.63110352 C56.53577434 1.66436907 49.62499998 2.1805521 42.07226562 2.19750977 C40.70179487 2.19294283 39.33132639 2.18763574 37.96086121 2.18162537 C35.10052125 2.17272661 32.24046104 2.17508287 29.38012695 2.18505859 C25.71804422 2.19658773 22.05692014 2.17626182 18.39496326 2.14714146 C15.5698995 2.1287913 12.74506652 2.12906868 9.91995811 2.13477898 C7.91469078 2.13500637 5.90944511 2.11811633 3.9042511 2.10096741 C2.68586044 2.11034836 1.46746979 2.11972931 0.2121582 2.12939453 C-0.85926926 2.1295607 -1.93069672 2.12972687 -3.03459167 2.12989807 C-6.49668865 2.75236034 -7.67779706 3.89787339 -9.82226562 6.63110352 C-10.83919098 11.44857192 -10.07380316 16.26874954 -7.82226562 20.63110352 C-8.81226563 20.30110352 -9.80226562 19.97110352 -10.82226562 19.63110352 C-11.81614335 16.64947034 -12.08596185 14.38117106 -12.19726562 11.25610352 C-12.24625 10.32024414 -12.29523438 9.38438477 -12.34570312 8.42016602 C-11.08362005 1.69533528 -6.21884997 0.0049859 0 0 Z " fill="#59A7CF" transform="translate(187.822265625,267.368896484375)"/>
<path d="M0 0 C8.49609375 -0.09765625 8.49609375 -0.09765625 11 0 C12 1 12 1 12.09765625 3.72265625 C12.04882812 8.36132812 12.04882812 8.36132812 12 13 C8.04 13 4.08 13 0 13 C0 8.71 0 4.42 0 0 Z " fill="#A3A9A7" transform="translate(321,129)"/>
<path d="M0 0 C3.96 0 7.92 0 12 0 C12 3.96 12 7.92 12 12 C8.04 12 4.08 12 0 12 C0 8.04 0 4.08 0 0 Z " fill="#9A9D9C" transform="translate(345,106)"/>
<path d="M0 0 C4.54347826 1.43478261 4.54347826 1.43478261 6.3125 3.625 C7.62127854 8.14623495 7.42091282 12.38650086 6.25 16.875 C4.67728217 19.54862031 3.92230893 19.95057835 1 21 C-1.91611711 21.19639649 -4.73636993 21.28345839 -7.65234375 21.2746582 C-8.52432404 21.27976913 -9.39630432 21.28488007 -10.29470825 21.29014587 C-13.17570873 21.30404081 -16.05647001 21.30308538 -18.9375 21.30078125 C-20.94002369 21.30466782 -22.94254656 21.30900241 -24.94506836 21.31376648 C-29.141466 21.32122817 -33.33777949 21.32093746 -37.53417969 21.31567383 C-42.91461819 21.30987485 -48.29471295 21.32682086 -53.6750946 21.3500185 C-57.81003842 21.36474072 -61.94489912 21.36562968 -66.0798645 21.36250877 C-68.06381919 21.3630226 -70.04777846 21.36827182 -72.03170776 21.37832069 C-74.80391892 21.39064042 -77.57545609 21.38392065 -80.34765625 21.37231445 C-81.16855743 21.37995819 -81.98945862 21.38760193 -82.8352356 21.39547729 C-86.1779626 21.36450347 -88.58186479 21.23011348 -91.54077148 19.60173035 C-93 18 -93 18 -93 16 C-92.01 16 -91.02 16 -90 16 C-90 16.99 -90 17.98 -90 19 C-78.33457856 19.06947079 -66.66920622 19.12279647 -55.00362015 19.15543652 C-49.58697459 19.17110107 -44.17047043 19.19235391 -38.75390625 19.22631836 C-33.52788653 19.25888341 -28.30200293 19.27684706 -23.07588959 19.28463173 C-21.08075568 19.29018035 -19.08562934 19.3010153 -17.09055328 19.31719017 C-14.29881108 19.3389264 -11.50763334 19.34196851 -8.71582031 19.34057617 C-7.88863495 19.351362 -7.06144958 19.36214783 -6.209198 19.3732605 C-2.87947663 19.35525808 -0.44544707 19.24184359 2.51153564 17.63642883 C5.18866978 14.69316757 4.52645191 11.45713303 4.40625 7.67578125 C3.87878742 4.20162867 2.58482126 2.34249427 0 0 Z " fill="#5DA5C6" transform="translate(270,194)"/>
<path d="M0 0 C0.33 0 0.66 0 1 0 C1.79509863 18.2578203 -3.97537009 35.09272602 -16 49 C-16.59296875 49.73476563 -17.1859375 50.46953125 -17.796875 51.2265625 C-24.49691835 59.23981434 -32.49451095 64.7564781 -42 69 C-42.66 69 -43.32 69 -44 69 C-43.67 68.01 -43.34 67.02 -43 66 C-42.195625 65.7525 -41.39125 65.505 -40.5625 65.25 C-30.15292059 61.597516 -22.91263668 53.44001394 -16.55078125 44.79296875 C-16.03902344 44.20128906 -15.52726562 43.60960937 -15 43 C-14.34 43 -13.68 43 -13 43 C-12.61328125 41.97519531 -12.61328125 41.97519531 -12.21875 40.9296875 C-10.56376473 36.95135751 -8.56856724 33.15930164 -6.56640625 29.34765625 C-3.05354105 22.48776926 -1.72394444 16.2122844 -1.4375 8.625 C-1.12325581 1.12325581 -1.12325581 1.12325581 0 0 Z " fill="#55A5CF" transform="translate(364,276)"/>
<path d="M0 0 C0.33 0 0.66 0 1 0 C1.4174307 6.8180348 0.06419969 12.99809204 -1.44140625 19.609375 C-2.12011576 23.4447842 -2.12011576 23.4447842 -1 27 C-0.01 27.33 0.98 27.66 2 28 C2 28.66 2 29.32 2 30 C4.47266765 29.65555119 4.47266765 29.65555119 7 29 C7.33 28.34 7.66 27.68 8 27 C10.375 25.3125 10.375 25.3125 13 24 C13.99 24.33 14.98 24.66 16 25 C13.78342876 26.70666987 11.55429595 28.38955137 9.3125 30.0625 C8.68666016 30.54783203 8.06082031 31.03316406 7.41601562 31.53320312 C2.69769702 35.01635979 2.69769702 35.01635979 -0.83203125 34.93359375 C-3 34 -3 34 -5 32 C-5.17825597 24.82896643 -3.26309363 17.39174648 -1.9375 10.375 C-1.75123047 9.37082031 -1.56496094 8.36664063 -1.37304688 7.33203125 C-0.91902767 4.88731245 -0.46129456 2.44335452 0 0 Z " fill="#4CA0C7" transform="translate(170,357)"/>
<path d="M0 0 C0.33 0.66 0.66 1.32 1 2 C0.41512251 3.50765928 -0.23020951 4.99194168 -0.89941406 6.46411133 C-3.99396209 14.67138725 -3.6051791 22.92306405 -3.609375 31.57421875 C-3.62438105 33.35213204 -3.64111323 35.13003151 -3.65948486 36.90791321 C-3.70289869 41.55203953 -3.7230994 46.19597789 -3.73822021 50.840271 C-3.75788564 55.59349564 -3.7998446 60.34652005 -3.83984375 65.09960938 C-3.91486403 74.39967742 -3.96532544 83.69970004 -4 93 C-4.33 93 -4.66 93 -5 93 C-5.06967922 82.46400703 -5.12290208 71.92806938 -5.15543652 61.39189243 C-5.17105575 56.49889009 -5.19222534 51.60604603 -5.22631836 46.71313477 C-5.25904568 41.98634738 -5.27688114 37.25971174 -5.28463173 32.53281975 C-5.29015131 30.73440095 -5.30092947 28.93598994 -5.31719017 27.13763618 C-5.47067904 9.4502785 -5.47067904 9.4502785 -2 2 C-1.34 1.34 -0.68 0.68 0 0 Z " fill="#54A4CF" transform="translate(166,183)"/>
<path d="M0 0 C2.74676963 1.02022872 5.17374222 2.10505344 7.6875 3.625 C9.83811106 5.17035846 9.83811106 5.17035846 12 5 C12 3.68 12 2.36 12 1 C13.32 0.67 14.64 0.34 16 0 C16 0.99 16 1.98 16 3 C17.98 3 19.96 3 22 3 C21.125 6.875 21.125 6.875 20 8 C20.99 8.99 21.98 9.98 23 11 C22.01 13.64 21.02 16.28 20 19 C19.07461831 15.29847322 18.91825838 14.36541838 20 11 C19.13890625 10.73058594 18.2778125 10.46117187 17.390625 10.18359375 C14.03448137 9.0120367 10.9359549 7.63546517 7.75 6.0625 C6.71359375 5.55847656 5.6771875 5.05445313 4.609375 4.53515625 C2 3 2 3 0 0 Z " fill="#4AAEEA" transform="translate(152,337)"/>
<path d="M0 0 C1.37349524 2.74699048 2.37934801 5.02402031 3.3125 7.875 C5.85123942 14.68286341 10.71568809 19.5267851 17 23 C20.61648893 24.49832942 24.27642156 25.79471873 28 27 C24.35417269 28.21527577 23.51096991 27.65504434 20.0625 26.1875 C19.20785156 25.83042969 18.35320312 25.47335937 17.47265625 25.10546875 C15.28173351 24.12595669 13.13518494 23.09483961 11 22 C11 21.34 11 20.68 11 20 C9.68 20 8.36 20 7 20 C4.75 17 4.75 17 3 14 C1.35 14.33 -0.3 14.66 -2 15 C-2 14.01 -2 13.02 -2 12 C-1.34 11.67 -0.68 11.34 0 11 C0 7.37 0 3.74 0 0 Z " fill="#4CA7D1" transform="translate(162,283)"/>
<path d="M0 0 C0 0.66 0 1.32 0 2 C4.29 2 8.58 2 13 2 C13 2.33 13 2.66 13 3 C11.783125 3.103125 10.56625 3.20625 9.3125 3.3125 C5.51984171 3.76575266 3.26727683 5.02243771 0 7 C-3.25 7.125 -3.25 7.125 -6 7 C-7.49743119 8.49743119 -7.33202693 9.98824239 -7.5625 12.0625 C-7.706875 13.361875 -7.85125 14.66125 -8 16 C-8.33 16 -8.66 16 -9 16 C-9.62644556 5.90726598 -9.62644556 5.90726598 -7.1875 2.375 C-4.78173356 0.86280395 -2.87074763 0 0 0 Z " fill="#45B5F0" transform="translate(185,193)"/>
<path d="M0 0 C0.35454548 6.40808134 0.51418914 12.41186317 -3 18 C-5.45298916 20.63357732 -8.02014677 22.97547126 -11 25 C-11.66 25 -12.32 25 -13 25 C-13 24.34 -13 23.68 -13 23 C-12.030625 22.38125 -11.06125 21.7625 -10.0625 21.125 C-6.93584624 19.35904569 -6.93584624 19.35904569 -6.125 16.9375 C-6.01900355 15.29455501 -6 13.64636068 -6 12 C-5.67 11.34 -5.34 10.68 -5 10 C-4.01 10 -3.02 10 -2 10 C-2 7.03 -2 4.06 -2 1 C-6.62 1 -11.24 1 -16 1 C-16 0.67 -16 0.34 -16 0 C-13.7089095 -0.19441368 -11.41709663 -0.38033135 -9.125 -0.5625 C-7.21074219 -0.71912109 -7.21074219 -0.71912109 -5.2578125 -0.87890625 C-2 -1 -2 -1 0 0 Z " fill="#4CA7DB" transform="translate(319,144)"/>
<path d="M0 0 C1.75183594 0.00386719 1.75183594 0.00386719 3.5390625 0.0078125 C4.70179688 0.00523437 5.86453125 0.00265625 7.0625 0 C10.1640625 0.1328125 10.1640625 0.1328125 13.1640625 1.1328125 C13.1640625 6.0828125 13.1640625 11.0328125 13.1640625 16.1328125 C7.5540625 16.1328125 1.9440625 16.1328125 -3.8359375 16.1328125 C-3.8565625 13.6784375 -3.8771875 11.2240625 -3.8984375 8.6953125 C-3.9075415 7.92131104 -3.91664551 7.14730957 -3.92602539 6.34985352 C-3.93318663 4.61059533 -3.88618452 2.87135946 -3.8359375 1.1328125 C-2.8359375 0.1328125 -2.8359375 0.1328125 0 0 Z M-2.8359375 2.1328125 C-2.86280303 4.11190648 -2.88227125 6.09110221 -2.8984375 8.0703125 C-2.91003906 9.17246094 -2.92164063 10.27460938 -2.93359375 11.41015625 C-3.14856321 14.04728884 -3.14856321 14.04728884 -1.8359375 15.1328125 C0.35045703 15.20540196 2.53906639 15.21655033 4.7265625 15.1953125 C5.92410156 15.18628906 7.12164062 15.17726562 8.35546875 15.16796875 C9.74572266 15.15056641 9.74572266 15.15056641 11.1640625 15.1328125 C12.34079448 12.77934854 12.33030116 11.2522092 12.3515625 8.6328125 C12.37283203 7.44171875 12.37283203 7.44171875 12.39453125 6.2265625 C12.36072553 3.91247933 12.36072553 3.91247933 10.1640625 2.1328125 C7.03591736 1.88921177 7.03591736 1.88921177 3.5390625 2.0078125 C1.75628906 2.03488281 1.75628906 2.03488281 -0.0625 2.0625 C-1.43535156 2.09730469 -1.43535156 2.09730469 -2.8359375 2.1328125 Z " fill="#939694" transform="translate(346.8359375,147.8671875)"/>
<path d="M0 0 C0.66 0 1.32 0 2 0 C2.45890625 0.94101562 2.9178125 1.88203125 3.390625 2.8515625 C4.01019772 4.10948286 4.63000177 5.36728931 5.25 6.625 C5.55035156 7.24246094 5.85070312 7.85992187 6.16015625 8.49609375 C8.85442165 13.94194935 11.73020589 19.09544177 16.25 23.25 C17.1575 24.1575 18.065 25.065 19 26 C19 26.66 19 27.32 19 28 C19.598125 28.2475 20.19625 28.495 20.8125 28.75 C23.28647521 30.16370012 24.43370255 31.65055383 26 34 C12.32322736 27.73907741 5.98452122 13.89557999 0 1 C0 0.67 0 0.34 0 0 Z " fill="#54A5CF" transform="translate(126,303)"/>
<path d="M0 0 C0.33 0.66 0.66 1.32 1 2 C-0.68474722 5.36949443 -1.8191658 6.87944386 -5 9 C-5 10.32 -5 11.64 -5 13 C2.59 13.33 10.18 13.66 18 14 C13.58508968 16.20745516 10.28873094 16.29878164 5.5 16.25 C4.74074219 16.25773437 3.98148437 16.26546875 3.19921875 16.2734375 C-0.66792278 16.25989235 -3.72791354 16.19299412 -7 14 C-7.4375 11.5 -7.4375 11.5 -7 8 C-4.91536818 5.08465023 -2.52494637 2.53782875 0 0 Z " fill="#4BA0CC" transform="translate(301,222)"/>
<path d="M0 0 C8.49609375 -0.09765625 8.49609375 -0.09765625 11 0 C12 1 12 1 12.09765625 3.72265625 C12.04882812 8.36132812 12.04882812 8.36132812 12 13 C8.04 13 4.08 13 0 13 C0 8.71 0 4.42 0 0 Z M1 2 C0.97310784 3.47906892 0.95365379 4.95827483 0.9375 6.4375 C0.92589844 7.26121094 0.91429687 8.08492187 0.90234375 8.93359375 C0.76732652 10.99163938 0.76732652 10.99163938 2 12 C3.87321948 12.16053815 3.87321948 12.16053815 6 12.125 C6.721875 12.12757813 7.44375 12.13015625 8.1875 12.1328125 C10.02089415 12.19695276 10.02089415 12.19695276 11 11 C11.16053815 9.12678052 11.16053815 9.12678052 11.125 7 C11.12757813 6.278125 11.13015625 5.55625 11.1328125 4.8125 C11.19695276 2.97910585 11.19695276 2.97910585 10 2 C8.48071962 1.92820036 6.95832518 1.91607993 5.4375 1.9375 C4.19806641 1.95103516 4.19806641 1.95103516 2.93359375 1.96484375 C1.97646484 1.98224609 1.97646484 1.98224609 1 2 Z " fill="#919493" transform="translate(321,129)"/>
<path d="M0 0 C0.33 0.99 0.66 1.98 1 3 C0.2884375 3.804375 0.2884375 3.804375 -0.4375 4.625 C-2.54139046 7.8229135 -2.19418339 10.23672004 -2.0078125 13.9765625 C-2 16 -2 16 -3 18 C-4.64363134 18.72159424 -6.31050386 19.39351421 -8 20 C-7.03205137 12.15627837 -4.41157612 6.52025401 0 0 Z " fill="#4CACDE" transform="translate(135,158)"/>
<path d="M0 0 C0.87462891 0.00451172 1.74925781 0.00902344 2.65039062 0.01367188 C4.78779047 0.02535166 6.92515463 0.04328311 9.0625 0.0625 C9.0625 0.3925 9.0625 0.7225 9.0625 1.0625 C-1.3325 1.5575 -1.3325 1.5575 -11.9375 2.0625 C-11.9375 2.7225 -11.9375 3.3825 -11.9375 4.0625 C-13.39567797 4.23052051 -14.8540484 4.39687143 -16.3125 4.5625 C-17.53066406 4.70171875 -17.53066406 4.70171875 -18.7734375 4.84375 C-20.9375 5.0625 -20.9375 5.0625 -22.9375 5.0625 C-22.9375 4.4025 -22.9375 3.7425 -22.9375 3.0625 C-15.29944451 0.26808946 -8.03335339 -0.07941718 0 0 Z " fill="#68ABD3" transform="translate(194.9375,128.9375)"/>
<path d="M0 0 C3.32911356 0.06527674 5.97640623 0.14741827 8.61328125 2.34375 C11.19278259 5.54087842 12.38085336 8.04114166 12.0625 12.1875 C10.97858082 16.07685707 10.36062194 17.7915913 7 20 C4.75 19.75 4.75 19.75 3 19 C3.804375 18.525625 4.60875 18.05125 5.4375 17.5625 C7.84753488 16.23099846 7.84753488 16.23099846 9 15 C9.28278761 10.85244841 9.22212968 7.57473036 7 4 C4.71061242 2.67818269 2.51455097 1.88474941 0 1 C0 0.67 0 0.34 0 0 Z " fill="#4CAEDA" transform="translate(244,269)"/>
<path d="M0 0 C1.40907283 2.81814566 0.50872691 4.17277204 -0.4375 7.125 C-0.72496094 8.03507813 -1.01242188 8.94515625 -1.30859375 9.8828125 C-1.53675781 10.58148438 -1.76492187 11.28015625 -2 12 C-1.34 12 -0.68 12 0 12 C0.33 12.99 0.66 13.98 1 15 C3.94389782 16.17755913 4.89953913 16.03348696 8 15 C8 15.66 8 16.32 8 17 C8.66 17.33 9.32 17.66 10 18 C2.92798453 18.59932334 2.92798453 18.59932334 -1 16.0625 C-3.66887218 11.97578947 -3.85243301 8.75941766 -3 4 C-1.5 1.4375 -1.5 1.4375 0 0 Z " fill="#47B4ED" transform="translate(180,233)"/>
<path d="M0 0 C0.99 0.33 1.98 0.66 3 1 C-4.87746171 7.86214442 -4.87746171 7.86214442 -9.5625 8.4375 C-10.366875 8.293125 -11.17125 8.14875 -12 8 C-12 8.66 -12 9.32 -12 10 C-12.99 9.67 -13.98 9.34 -15 9 C-14.67 7.02 -14.34 5.04 -14 3 C-13.01 3.33 -12.02 3.66 -11 4 C-11 4.66 -11 5.32 -11 6 C-8.52733235 5.65555119 -8.52733235 5.65555119 -6 5 C-5.67 4.34 -5.34 3.68 -5 3 C-2.625 1.3125 -2.625 1.3125 0 0 Z " fill="#4CB3F0" transform="translate(183,381)"/>
<path d="M0 0 C0.05437607 1.58294782 0.09296271 3.16644256 0.125 4.75 C0.14820313 5.63171875 0.17140625 6.5134375 0.1953125 7.421875 C0 10 0 10 -2 14 C-2 9.71 -2 5.42 -2 1 C-6.62 1 -11.24 1 -16 1 C-16 0.67 -16 0.34 -16 0 C-13.7089095 -0.19441368 -11.41709663 -0.38033135 -9.125 -0.5625 C-7.21074219 -0.71912109 -7.21074219 -0.71912109 -5.2578125 -0.87890625 C-2 -1 -2 -1 0 0 Z " fill="#4D9BC7" transform="translate(319,144)"/>
<path d="M0 0 C0.66 0.33 1.32 0.66 2 1 C1.0409375 1.37125 1.0409375 1.37125 0.0625 1.75 C-0.618125 2.1625 -1.29875 2.575 -2 3 C-2.144375 3.639375 -2.28875 4.27875 -2.4375 4.9375 C-3 7 -3 7 -5.125 8.375 C-6.07375 8.91125 -7.0225 9.4475 -8 10 C-10.39600769 11.92970392 -12.70268552 13.95426463 -15 16 C-13.42529581 12.17444746 -10.99021491 9.75542436 -8.0625 6.875 C-7.18722656 6.00617188 -6.31195313 5.13734375 -5.41015625 4.2421875 C-3 2 -3 2 0 0 Z " fill="#56A3CA" transform="translate(151,142)"/>
<path d="M0 0 C4.24 8.48 4.24 8.48 3.625 12.375 C3.41875 12.91125 3.2125 13.4475 3 14 C1.35 14.33 -0.3 14.66 -2 15 C-2 14.01 -2 13.02 -2 12 C-1.34 11.67 -0.68 11.34 0 11 C0 7.37 0 3.74 0 0 Z " fill="#4EACE0" transform="translate(162,283)"/>
<path d="M0 0 C-3.96 2.64 -7.92 5.28 -12 8 C-12.33 6.68 -12.66 5.36 -13 4 C-10.81006393 1.81006393 -9.4012702 1.27802011 -6.5 0.3125 C-5.7059375 0.04050781 -4.911875 -0.23148437 -4.09375 -0.51171875 C-2 -1 -2 -1 0 0 Z " fill="#4DA2CC" transform="translate(215,361)"/>
<path d="M0 0 C3.87154586 2.75083522 5.33605064 4.63213294 7 9 C8.56537653 11.10877157 10.25806109 13.0288586 12 15 C11.34 15.66 10.68 16.32 10 17 C9.566875 16.21625 9.13375 15.4325 8.6875 14.625 C7.10779753 11.78301625 7.10779753 11.78301625 4 10 C4 8.68 4 7.36 4 6 C3.34 6 2.68 6 2 6 C1.34 4.02 0.68 2.04 0 0 Z " fill="#49ACE0" transform="translate(351,187)"/>
<path d="M0 0 C3.375 -0.1875 3.375 -0.1875 7 0 C7.66 0.99 8.32 1.98 9 3 C8.5390625 5.04296875 8.5390625 5.04296875 7.625 7.1875 C7.32851562 7.90292969 7.03203125 8.61835938 6.7265625 9.35546875 C6.48679688 9.89816406 6.24703125 10.44085938 6 11 C5.12159004 7.90279155 5.00564594 6.09354597 6 3 C4.02 2.34 2.04 1.68 0 1 C0 0.67 0 0.34 0 0 Z " fill="#4BAAD7" transform="translate(166,345)"/>
<path d="M0 0 C0.33 0.66 0.66 1.32 1 2 C0.01 2.33 -0.98 2.66 -2 3 C-2.33 3.66 -2.66 4.32 -3 5 C-3.66 5 -4.32 5 -5 5 C-5.33 8.63 -5.66 12.26 -6 16 C-6.33 16 -6.66 16 -7 16 C-7.62644556 5.90726598 -7.62644556 5.90726598 -5.1875 2.375 C-3 1 -3 1 0 0 Z " fill="#56A4CE" transform="translate(183,193)"/>
<path d="M0 0 C0.66 0.99 1.32 1.98 2 3 C-0.06756277 5.7972908 -1.14440371 6.02692273 -4.6875 6.6875 C-5.780625 6.790625 -6.87375 6.89375 -8 7 C-5.4837822 4.39391727 -2.94865641 2.10618315 0 0 Z " fill="#4EA9DA" transform="translate(311,299)"/>
<path d="M0 0 C1.8871875 0.0309375 1.8871875 0.0309375 3.8125 0.0625 C3.8125 0.7225 3.8125 1.3825 3.8125 2.0625 C2.35432203 2.23052051 0.8959516 2.39687143 -0.5625 2.5625 C-1.78066406 2.70171875 -1.78066406 2.70171875 -3.0234375 2.84375 C-5.1875 3.0625 -5.1875 3.0625 -7.1875 3.0625 C-7.1875 2.4025 -7.1875 1.7425 -7.1875 1.0625 C-4.43671116 0.14557039 -2.82801087 -0.04636083 0 0 Z " fill="#4DA8DF" transform="translate(179.1875,130.9375)"/>
<path d="M0 0 C-4.455 3.465 -4.455 3.465 -9 7 C-9.66 6.67 -10.32 6.34 -11 6 C-8.2187768 1.75497512 -5.23081755 -1.74360585 0 0 Z " fill="#48A0C5" transform="translate(186,382)"/>
<path d="M0 0 C0.99 0.33 1.98 0.66 3 1 C3 2.32 3 3.64 3 5 C3.66 5.33 4.32 5.66 5 6 C4.67 6.66 4.34 7.32 4 8 C4.99 8.33 5.98 8.66 7 9 C5.68 9 4.36 9 3 9 C0 3.375 0 3.375 0 0 Z " fill="#47B1E5" transform="translate(177,280)"/>
<path d="M0 0 C0.8971875 0.309375 0.8971875 0.309375 1.8125 0.625 C0.69176138 1.46405565 -0.43424547 2.29607831 -1.5625 3.125 C-2.18898437 3.5890625 -2.81546875 4.053125 -3.4609375 4.53125 C-5.1875 5.625 -5.1875 5.625 -7.1875 5.625 C-5.69046729 2.17030914 -4.27938051 -0.73360809 0 0 Z " fill="#4DACDA" transform="translate(177.1875,173.375)"/>
<path d="M0 0 C2 4 2 4 1.25 7.6875 C0 11 0 11 -2 12 C-1.34 8.04 -0.68 4.08 0 0 Z " fill="#4EB3E9" transform="translate(169,370)"/>
<path d="M0 0 C1.65 1.65 3.3 3.3 5 5 C4.67 5.66 4.34 6.32 4 7 C3.34 7 2.68 7 2 7 C0 4 0 4 0 0 Z " fill="#46A8DA" transform="translate(346,182)"/>
<path d="M0 0 C0.99 0.495 0.99 0.495 2 1 C2.75 3.375 2.75 3.375 3 6 C2.34 6.99 1.68 7.98 1 9 C0 8 0 8 -0.09765625 6.15234375 C-0.06510417 4.1015625 -0.03255208 2.05078125 0 0 Z " fill="#48AFE5" transform="translate(160,277)"/>
<path d="M0 0 C2 1.25 2 1.25 4 3 C4 4.32 4 5.64 4 7 C2.68 7.33 1.36 7.66 0 8 C0 7.34 0 6.68 0 6 C0.66 5.67 1.32 5.34 2 5 C1.34 3.35 0.68 1.7 0 0 Z " fill="#46B2E9" transform="translate(386,228)"/>
<path d="" fill="#FFFFFF" transform="translate(0,0)"/>
<path d="" fill="#FFFFFF" transform="translate(0,0)"/>
<path d="" fill="#FFFFFF" transform="translate(0,0)"/>
<path d="" fill="#FFFFFF" transform="translate(0,0)"/>
<path d="" fill="#FFFFFF" transform="translate(0,0)"/>
<path d="" fill="#FFFFFF" transform="translate(0,0)"/>
<path d="" fill="#FFFFFF" transform="translate(0,0)"/>
<path d="" fill="#FFFFFF" transform="translate(0,0)"/>
<path d="" fill="#FFFFFF" transform="translate(0,0)"/>
<path d="" fill="#FFFFFF" transform="translate(0,0)"/>
<path d="" fill="#FFFFFF" transform="translate(0,0)"/>
<path d="" fill="#FFFFFF" transform="translate(0,0)"/>
<path d="" fill="#FFFFFF" transform="translate(0,0)"/>
<path d="" fill="#FFFFFF" transform="translate(0,0)"/>
<path d="" fill="#FFFFFF" transform="translate(0,0)"/>
<path d="" fill="#FFFFFF" transform="translate(0,0)"/>
<path d="" fill="#FFFFFF" transform="translate(0,0)"/>
<path d="" fill="#FFFFFF" transform="translate(0,0)"/>
<path d="" fill="#FFFFFF" transform="translate(0,0)"/>
<path d="" fill="#FFFFFF" transform="translate(0,0)"/>
<path d="" fill="#FFFFFF" transform="translate(0,0)"/>
<path d="" fill="#FFFFFF" transform="translate(0,0)"/>
<path d="" fill="#FFFFFF" transform="translate(0,0)"/>
<path d="" fill="#FFFFFF" transform="translate(0,0)"/>
<path d="" fill="#FFFFFF" transform="translate(0,0)"/>
<path d="" fill="#FFFFFF" transform="translate(0,0)"/>
<path d="" fill="#FFFFFF" transform="translate(0,0)"/>
<path d="" fill="#FFFFFF" transform="translate(0,0)"/>
<path d="" fill="#FFFFFF" transform="translate(0,0)"/>
<path d="" fill="#FFFFFF" transform="translate(0,0)"/>
<path d="" fill="#FFFFFF" transform="translate(0,0)"/>
<path d="" fill="#FFFFFF" transform="translate(0,0)"/>
<path d="" fill="#FFFFFF" transform="translate(0,0)"/>
<path d="" fill="#FFFFFF" transform="translate(0,0)"/>
<path d="" fill="#FFFFFF" transform="translate(0,0)"/>
<path d="" fill="#FFFFFF" transform="translate(0,0)"/>
<path d="" fill="#FFFFFF" transform="translate(0,0)"/>
<path d="" fill="#FFFFFF" transform="translate(0,0)"/>
<path d="" fill="#FFFFFF" transform="translate(0,0)"/>
<path d="" fill="#FFFFFF" transform="translate(0,0)"/>
<path d="" fill="#FFFFFF" transform="translate(0,0)"/>
<path d="" fill="#FFFFFF" transform="translate(0,0)"/>
<path d="" fill="#FFFFFF" transform="translate(0,0)"/>
<path d="" fill="#FFFFFF" transform="translate(0,0)"/>
<path d="" fill="#FFFFFF" transform="translate(0,0)"/>
<path d="" fill="#FFFFFF" transform="translate(0,0)"/>
<path d="" fill="#FFFFFF" transform="translate(0,0)"/>
<path d="" fill="#FFFFFF" transform="translate(0,0)"/>
<path d="" fill="#FFFFFF" transform="translate(0,0)"/>
<path d="" fill="#FFFFFF" transform="translate(0,0)"/>
<path d="" fill="#FFFFFF" transform="translate(0,0)"/>
<path d="" fill="#FFFFFF" transform="translate(0,0)"/>
<path d="" fill="#FFFFFF" transform="translate(0,0)"/>
<path d="" fill="#FFFFFF" transform="translate(0,0)"/>
<path d="" fill="#FFFFFF" transform="translate(0,0)"/>
<path d="" fill="#FFFFFF" transform="translate(0,0)"/>
<path d="" fill="#FFFFFF" transform="translate(0,0)"/>
<path d="" fill="#FFFFFF" transform="translate(0,0)"/>
<path d="" fill="#FFFFFF" transform="translate(0,0)"/>
<path d="" fill="#FFFFFF" transform="translate(0,0)"/>
<path d="" fill="#FFFFFF" transform="translate(0,0)"/>
<path d="" fill="#FFFFFF" transform="translate(0,0)"/>
<path d="" fill="#FFFFFF" transform="translate(0,0)"/>
<path d="" fill="#FFFFFF" transform="translate(0,0)"/>
<path d="" fill="#FFFFFF" transform="translate(0,0)"/>
<path d="" fill="#FFFFFF" transform="translate(0,0)"/>
<path d="" fill="#FFFFFF" transform="translate(0,0)"/>
<path d="" fill="#FFFFFF" transform="translate(0,0)"/>
<path d="" fill="#FFFFFF" transform="translate(0,0)"/>
<path d="" fill="#FFFFFF" transform="translate(0,0)"/>
<path d="" fill="#FFFFFF" transform="translate(0,0)"/>
<path d="" fill="#FFFFFF" transform="translate(0,0)"/>
<path d="" fill="#FFFFFF" transform="translate(0,0)"/>
<path d="" fill="#FFFFFF" transform="translate(0,0)"/>
<path d="" fill="#FFFFFF" transform="translate(0,0)"/>
<path d="" fill="#FFFFFF" transform="translate(0,0)"/>
</svg>
