<?xml version="1.0" standalone="no"?>
<!DOCTYPE svg PUBLIC "-//W3C//DTD SVG 20010904//EN"
 "http://www.w3.org/TR/2001/REC-SVG-20010904/DTD/svg10.dtd">
<svg version="1.0" xmlns="http://www.w3.org/2000/svg"
 width="512.000000pt" height="512.000000pt" viewBox="0 0 512.000000 512.000000"
 preserveAspectRatio="xMidYMid meet">
<metadata>
Created by potrace 1.10, written by Peter Selinger 2001-2011
</metadata>
<g transform="translate(0.000000,512.000000) scale(0.180000,-0.180000)"
fill="#2563eb" stroke="none">
<path d="M1023 2199 c-151 -48 -261 -184 -283 -350 -13 -98 -13 -522 0 -590
25 -135 121 -262 242 -321 l55 -27 -23 -116 c-24 -118 -23 -145 4 -145 8 0 90
56 181 124 l166 124 245 4 c219 3 250 6 296 24 116 47 209 142 255 262 19 48
23 82 27 225 l4 167 73 0 c52 0 74 4 78 14 6 15 -263 319 -286 324 -17 3 -300
-305 -294 -321 2 -8 34 -13 81 -15 l78 -3 -4 -152 c-4 -161 -11 -189 -60 -233
-58 -53 -63 -54 -413 -54 -270 0 -332 3 -362 15 -50 21 -72 42 -94 90 -17 36
-19 69 -19 315 0 311 4 332 76 386 l37 29 377 5 c333 4 379 7 402 22 28 19 51
74 46 110 -3 21 -7 23 -52 19 l-49 -3 5 46 6 46 -367 -1 c-334 0 -371 -2 -428
-20z"/>
<path d="M1076 1824 c-21 -20 -21 -78 0 -98 13 -14 53 -16 280 -16 251 0 265
1 284 20 11 11 20 31 20 45 0 14 -9 34 -20 45 -19 19 -33 20 -284 20 -227 0
-267 -2 -280 -16z"/>
<path d="M1072 1598 c-7 -7 -12 -28 -12 -48 0 -20 5 -41 12 -48 9 -9 77 -12
244 -12 198 0 235 2 248 16 19 18 21 75 4 92 -17 17 -479 17 -496 0z"/>
<path d="M1078 1379 c-21 -12 -25 -78 -6 -97 9 -9 73 -12 225 -12 200 0 213 1
223 19 15 30 12 66 -8 84 -16 15 -46 17 -218 17 -116 0 -206 -5 -216 -11z"/>
</g>
<g transform="translate(3800,512) scale(0.07,-0.07)" fill="#94a3b8">
    <path d="M0 0 L50 50 L100 0 Z"/>
    <path d="M25 25 L75 75 L125 25 Z"/>
    <path d="M50 50 L100 100 L150 50 Z"/>
</g>
</svg>